<?xml version="1.0" encoding="utf-8"?>
<!-- Generator: Adobe Illustrator 22.1.0, SVG Export Plug-In . SVG Version: 6.00 Build 0)  -->
<svg version="1.1" id="Layer_1" xmlns="http://www.w3.org/2000/svg" xmlns:xlink="http://www.w3.org/1999/xlink" x="0px" y="0px"
	 viewBox="0 0 158.4 31.3" style="enable-background:new 0 0 158.4 31.3;" xml:space="preserve">
<style type="text/css">
	.st0{fill:#FFFFFF;}
	.st1{fill:url(#SVGID_1_);}
	.st2{fill:url(#SVGID_2_);}
	.st3{fill:url(#SVGID_3_);}
	.st4{fill:url(#SVGID_4_);}
	.st5{fill:#F9AA19;}
	.st6{fill:#323232;}
	.st7{fill:url(#SVGID_5_);}
	.st8{fill:url(#SVGID_6_);}
	.st9{fill:url(#SVGID_7_);}
	.st10{fill:url(#SVGID_8_);}
</style>
<g>
	<g>
		<rect x="0.2" y="5.3" class="st0" width="3.2" height="13.3"/>
		<path class="st0" d="M20.4,0.1v18.5h-3.2v-2.1c-0.5,0.7-1.1,1.3-1.9,1.7c-0.8,0.4-1.6,0.6-2.6,0.6c-1.3,0-2.4-0.3-3.3-0.9
			c-1-0.6-1.7-1.4-2.2-2.4s-0.8-2.2-0.8-3.6c0-1.3,0.3-2.5,0.8-3.5c0.5-1,1.3-1.8,2.2-2.4c1-0.6,2.1-0.9,3.3-0.9
			c1,0,1.9,0.2,2.7,0.6c0.8,0.4,1.4,1,1.9,1.7V0.1H20.4z M16.1,14.9c0.7-0.8,1.1-1.7,1.1-2.9S16.8,9.8,16.1,9
			c-0.7-0.8-1.6-1.1-2.7-1.1s-2,0.4-2.7,1.1C9.9,9.8,9.6,10.8,9.5,12c0,1.2,0.4,2.2,1.1,2.9c0.7,0.8,1.6,1.1,2.7,1.1
			C14.4,16,15.4,15.7,16.1,14.9z"/>
		<path class="st0" d="M34.9,7c1.1,1.2,1.6,2.9,1.6,5.1c0,0.4,0,0.8,0,1h-9.9c0.2,0.9,0.7,1.7,1.3,2.2c0.7,0.5,1.5,0.8,2.5,0.8
			c0.7,0,1.3-0.1,2-0.4c0.6-0.3,1.2-0.6,1.6-1.1l1.7,1.8c-0.7,0.7-1.5,1.3-2.4,1.7c-1,0.4-2,0.6-3.2,0.6c-1.4,0-2.6-0.3-3.6-0.9
			c-1-0.6-1.8-1.4-2.4-2.4s-0.9-2.2-0.9-3.5c0-1.3,0.3-2.5,0.9-3.5c0.6-1,1.4-1.8,2.4-2.4c1-0.6,2.2-0.9,3.5-0.9
			C32.2,5.2,33.8,5.8,34.9,7z M33.5,10.9c0-1-0.4-1.8-1-2.3s-1.4-0.9-2.4-0.9c-0.9,0-1.7,0.3-2.4,0.9c-0.6,0.6-1,1.4-1.2,2.4H33.5z"
			/>
		<path class="st0" d="M47.2,18.6V17c-0.5,0.6-1.1,1-1.8,1.3c-0.7,0.3-1.6,0.5-2.5,0.5c-0.9,0-1.7-0.2-2.5-0.5
			c-0.7-0.4-1.3-0.9-1.6-1.5c-0.4-0.6-0.6-1.3-0.6-2.1c0-1.3,0.4-2.2,1.3-2.9c0.9-0.7,2.1-1.1,3.7-1.1h3.9v-0.3
			c0-0.8-0.3-1.4-0.8-1.8c-0.5-0.4-1.3-0.7-2.2-0.7c-1.3,0-2.6,0.4-4,1.3L39,6.8c1.1-0.6,2-1,2.9-1.3s1.9-0.4,3-0.4
			c1.7,0,3.1,0.4,4,1.3c1,0.8,1.4,2,1.5,3.5l0,8.7L47.2,18.6L47.2,18.6z M46,15.6c0.7-0.4,1-1,1.1-1.6v-1.2h-3.4
			c-0.9,0-1.5,0.1-1.9,0.4c-0.4,0.3-0.6,0.7-0.6,1.3c0,0.6,0.2,1,0.6,1.3s1,0.5,1.7,0.5C44.5,16.3,45.3,16,46,15.6z"/>
		<path class="st0" d="M54,0.1h3.4v18.5H54V0.1z"/>
		<path class="st0" d="M72.7,6.5c0.9,0.9,1.3,2.2,1.3,3.7v8.3h-3.3v-7.4c0-0.9-0.3-1.7-0.8-2.2c-0.5-0.5-1.3-0.8-2.2-0.8
			c-1.1,0-1.9,0.4-2.6,1.1c-0.6,0.7-0.9,1.6-0.9,2.7v6.6h-3.2V5.3h3.2v2.5c0.9-1.7,2.5-2.6,4.8-2.6C70.6,5.1,71.8,5.6,72.7,6.5z"/>
		<path class="st0" d="M87.2,6c1.1,0.6,1.9,1.4,2.5,2.4c0.6,1,0.9,2.2,0.9,3.5c0,1.3-0.3,2.5-0.9,3.6c-0.6,1-1.4,1.8-2.5,2.4
			c-1.1,0.6-2.3,0.9-3.7,0.9c-1.4,0-2.6-0.3-3.7-0.9c-1.1-0.6-1.9-1.4-2.5-2.4c-0.6-1-0.9-2.2-0.9-3.6c0-1.3,0.3-2.5,0.9-3.5
			c0.6-1,1.4-1.8,2.5-2.4c1.1-0.6,2.3-0.9,3.7-0.9C84.9,5.2,86.1,5.4,87.2,6z M80.8,9.1c-0.7,0.7-1.1,1.7-1.1,2.9s0.3,2.2,1.1,2.9
			c0.7,0.7,1.6,1.1,2.7,1.1c1.1,0,2-0.4,2.7-1.1c0.7-0.7,1.1-1.7,1.1-2.9s-0.3-2.2-1.1-2.9c-0.7-0.7-1.6-1.1-2.7-1.1
			C82.4,7.9,81.5,8.3,80.8,9.1z"/>
		<path class="st0" d="M104,5.8c0.8-0.5,1.7-0.7,2.7-0.7v3.1c-1.4-0.1-2.5,0.2-3.3,1c-0.8,0.7-1.2,1.7-1.2,2.9v6.4h-3.2V5.3h3.2v2.6
			C102.6,7,103.2,6.3,104,5.8z"/>
		<path class="st0" d="M114.9,8c-0.7-0.2-1.3-0.3-1.9-0.3c-0.5,0-1,0.1-1.3,0.3c-0.3,0.2-0.5,0.5-0.5,0.9c0,0.4,0.2,0.7,0.6,1
			c0.4,0.2,1.1,0.5,1.9,0.7c0.9,0.3,1.7,0.6,2.3,0.8c0.6,0.3,1.1,0.7,1.6,1.2c0.4,0.5,0.7,1.3,0.7,2.1c0,1.3-0.5,2.3-1.5,3
			c-1,0.7-2.3,1.1-3.8,1.1c-1,0-2-0.2-3-0.5c-1-0.3-1.8-0.8-2.5-1.4l1.1-2.3c0.6,0.5,1.3,0.9,2.1,1.2c0.8,0.3,1.6,0.4,2.4,0.4
			c0.6,0,1.1-0.1,1.4-0.3s0.5-0.5,0.5-0.9c0-0.5-0.2-0.8-0.6-1.1c-0.4-0.2-1.1-0.5-2-0.8c-0.9-0.3-1.6-0.5-2.2-0.8
			c-0.6-0.3-1.1-0.7-1.5-1.2c-0.4-0.5-0.6-1.2-0.6-2.1c0-1.3,0.5-2.3,1.4-3c1-0.7,2.2-1,3.6-1c0.9,0,1.7,0.1,2.6,0.4
			c0.9,0.3,1.6,0.6,2.3,1.1l-1.2,2.3C116.2,8.5,115.6,8.2,114.9,8z"/>
		<path class="st0" d="M95.8,17c0,0.9-0.8,1.7-1.7,1.7S92.4,18,92.4,17c0-0.9,0.8-1.7,1.7-1.7S95.8,16.1,95.8,17"/>
		<path class="st0" d="M3.5,1.8c0,0.9-0.8,1.7-1.7,1.7S0.2,2.7,0.2,1.8s0.8-1.7,1.7-1.7S3.5,0.9,3.5,1.8"/>
	</g>
	<g>
		
			<linearGradient id="SVGID_1_" gradientUnits="userSpaceOnUse" x1="153.1313" y1="12.8699" x2="126.1981" y2="12.8699" gradientTransform="matrix(1 0 0 -1 0 34.2)">
			<stop  offset="0" style="stop-color:#F9AA19"/>
			<stop  offset="9.090910e-03" style="stop-color:#F9AA19"/>
			<stop  offset="1" style="stop-color:#FFCA05"/>
		</linearGradient>
		<polygon class="st1" points="126.2,18.7 131.3,23.9 153.2,23.9 153.2,18.7 		"/>
		
			<linearGradient id="SVGID_2_" gradientUnits="userSpaceOnUse" x1="131.2754" y1="31.5189" x2="158.2857" y2="31.5189" gradientTransform="matrix(1 0 0 -1 0 34.2)">
			<stop  offset="0" style="stop-color:#F9AA19"/>
			<stop  offset="9.090910e-03" style="stop-color:#F9AA19"/>
			<stop  offset="1" style="stop-color:#FFCA05"/>
		</linearGradient>
		<polygon class="st2" points="158.3,5.3 153.2,0.1 131.3,0.1 131.3,5.3 		"/>
		
			<linearGradient id="SVGID_3_" gradientUnits="userSpaceOnUse" x1="128.7392" y1="15.5318" x2="128.7392" y2="34.0451" gradientTransform="matrix(1 0 0 -1 0 34.2)">
			<stop  offset="0" style="stop-color:#F9AA19"/>
			<stop  offset="9.090910e-03" style="stop-color:#F9AA19"/>
			<stop  offset="1" style="stop-color:#FFCA05"/>
		</linearGradient>
		<polygon class="st3" points="131.3,0.1 126.2,5.3 126.2,18.7 131.3,18.7 		"/>
		
			<linearGradient id="SVGID_4_" gradientUnits="userSpaceOnUse" x1="155.7495" y1="28.9063" x2="155.7495" y2="10.2864" gradientTransform="matrix(1 0 0 -1 0 34.2)">
			<stop  offset="0" style="stop-color:#F9AA19"/>
			<stop  offset="9.090910e-03" style="stop-color:#F9AA19"/>
			<stop  offset="1" style="stop-color:#FFCA05"/>
		</linearGradient>
		<polygon class="st4" points="153.2,23.9 158.3,18.7 158.3,5.3 153.2,5.3 		"/>
		<path class="st5" d="M127.1,25.2c0,0.7-0.3,1.4-0.8,1.8c-0.5,0.5-1.1,0.8-1.8,0.8c-0.7,0-1.4-0.3-1.8-0.8
			c-0.5-0.5-0.8-1.1-0.8-1.8s0.3-1.4,0.8-1.8c0.5-0.5,1.1-0.8,1.8-0.8c0.7,0,1.4,0.3,1.8,0.8C126.8,23.9,127.1,24.5,127.1,25.2"/>
		<path class="st5" d="M120.1,29.6c0,0.4-0.2,0.8-0.5,1.1c-0.3,0.3-0.7,0.5-1.1,0.5s-0.8-0.2-1.1-0.5s-0.5-0.7-0.5-1.1
			c0-0.4,0.2-0.8,0.5-1.1c0.3-0.3,0.7-0.5,1.1-0.5s0.8,0.2,1.1,0.5S120.1,29.2,120.1,29.6"/>
	</g>
</g>
</svg>
