<?xml version="1.0" encoding="utf-8"?>
<!-- Generator: Adobe Illustrator 22.1.0, SVG Export Plug-In . SVG Version: 6.00 Build 0)  -->
<svg version="1.1" id="Layer_1" xmlns="http://www.w3.org/2000/svg" xmlns:xlink="http://www.w3.org/1999/xlink" x="0px" y="0px"
	 viewBox="0 0 142.7 31.3" style="enable-background:new 0 0 142.7 31.3;" xml:space="preserve">
<style type="text/css">
	.st0{fill:#FFFFFF;}
	.st1{fill:url(#SVGID_1_);}
	.st2{fill:url(#SVGID_2_);}
	.st3{fill:url(#SVGID_3_);}
	.st4{fill:url(#SVGID_4_);}
	.st5{fill:#F9AA19;}
	.st6{fill:#323232;}
	.st7{fill:url(#SVGID_5_);}
	.st8{fill:url(#SVGID_6_);}
	.st9{fill:url(#SVGID_7_);}
	.st10{fill:url(#SVGID_8_);}
</style>
<g>
	<path class="st6" d="M6.8,8.1c-1.1,0-1.9,0.4-2.6,1.1c-0.6,0.7-1,1.6-1,2.8c0,1.2,0.3,2.1,1,2.8c0.6,0.7,1.5,1.1,2.6,1.1
		c1.6,0,2.7-0.5,3.5-1.5l2,1.6c-0.6,0.8-1.4,1.5-2.3,1.9c-0.9,0.5-2.1,0.7-3.3,0.7c-1.3,0-2.4-0.3-3.4-0.8c-1-0.5-1.8-1.3-2.3-2.3
		c-0.5-1-0.8-2.1-0.8-3.4c0-1.3,0.3-2.5,0.8-3.5s1.3-1.8,2.3-2.3c1-0.5,2.1-0.8,3.4-0.8c1.2,0,2.2,0.2,3.2,0.6
		c0.9,0.4,1.7,1,2.3,1.8l-1.9,1.8C9.4,8.5,8.2,8.1,6.8,8.1 M16.5,10.9c0.1-1,0.5-1.7,1.2-2.3C18.3,8,19.1,7.7,20,7.7
		c1,0,1.8,0.3,2.4,0.8c0.6,0.6,0.9,1.3,0.9,2.3L16.5,10.9L16.5,10.9z M24.6,7.1c-1-1.2-2.6-1.8-4.7-1.8c-1.3,0-2.4,0.3-3.4,0.8
		s-1.8,1.3-2.3,2.4c-0.6,1-0.8,2.2-0.8,3.4c0,1.3,0.3,2.4,0.8,3.4c0.5,1,1.3,1.8,2.3,2.3c1,0.5,2.2,0.8,3.5,0.8
		c1.1,0,2.2-0.2,3.1-0.6c0.9-0.4,1.7-0.9,2.4-1.7l-1.7-1.8c-0.5,0.5-1,0.8-1.6,1.1c-0.6,0.2-1.2,0.4-1.9,0.4c-0.9,0-1.8-0.3-2.4-0.8
		c-0.6-0.5-1.1-1.2-1.3-2.2h9.6c0-0.2,0-0.5,0-0.9C26.2,9.9,25.7,8.3,24.6,7.1 M40.2,6.6c-0.9-0.9-2-1.4-3.5-1.4
		c-2.2,0-3.8,0.9-4.7,2.5V5.4h-3.2v13H32V12c0-1.1,0.3-2,0.9-2.7c0.6-0.7,1.4-1.1,2.5-1.1c0.9,0,1.6,0.3,2.1,0.8s0.8,1.2,0.8,2.1
		v7.2h3.2v-8.1C41.5,8.7,41.1,7.5,40.2,6.6 M47.1,10.9c0.1-1,0.5-1.7,1.2-2.3c0.6-0.6,1.4-0.8,2.3-0.8c1,0,1.8,0.3,2.4,0.8
		c0.6,0.6,0.9,1.3,0.9,2.3L47.1,10.9L47.1,10.9z M55.2,7.1c-1-1.2-2.6-1.8-4.7-1.8c-1.3,0-2.4,0.3-3.4,0.8c-1,0.6-1.8,1.3-2.3,2.4
		c-0.6,1-0.8,2.2-0.8,3.4c0,1.3,0.3,2.4,0.8,3.4c0.5,1,1.3,1.8,2.3,2.3c1,0.5,2.2,0.8,3.5,0.8c1.1,0,2.2-0.2,3.1-0.6
		c0.9-0.4,1.7-0.9,2.4-1.7l-1.7-1.8c-0.5,0.5-1,0.8-1.6,1.1c-0.6,0.2-1.2,0.4-1.9,0.4c-0.9,0-1.8-0.3-2.4-0.8
		c-0.6-0.5-1.1-1.2-1.3-2.2h9.6c0-0.2,0-0.5,0-0.9C56.7,9.9,56.2,8.3,55.2,7.1 M57.8,21.2c-0.4,0-0.7-0.1-1.1-0.2L56,23.4
		c0.8,0.3,1.6,0.5,2.5,0.5c1.3,0,2.3-0.4,3-1.1c0.7-0.8,1.1-1.8,1.1-3.1V5.4h-3.2v13.7c0,0.7-0.1,1.2-0.4,1.6
		C58.8,21.1,58.3,21.2,57.8,21.2 M68.3,10.9c0.1-1,0.5-1.7,1.2-2.3c0.6-0.6,1.4-0.8,2.3-0.8c1,0,1.8,0.3,2.4,0.8
		c0.6,0.6,0.9,1.3,0.9,2.3L68.3,10.9L68.3,10.9z M76.5,7.1c-1-1.2-2.6-1.8-4.7-1.8c-1.3,0-2.4,0.3-3.4,0.8c-1,0.6-1.8,1.3-2.3,2.4
		c-0.6,1-0.8,2.2-0.8,3.4c0,1.3,0.3,2.4,0.8,3.4c0.5,1,1.3,1.8,2.3,2.3c1,0.5,2.2,0.8,3.5,0.8c1.1,0,2.2-0.2,3.1-0.6
		c0.9-0.4,1.7-0.9,2.4-1.7l-1.7-1.8c-0.5,0.5-1,0.8-1.6,1.1c-0.6,0.2-1.2,0.4-1.9,0.4c-0.9,0-1.8-0.3-2.4-0.8
		c-0.6-0.5-1.1-1.2-1.3-2.2H78c0-0.2,0-0.5,0-0.9C78,9.9,77.5,8.3,76.5,7.1 M91.9,8c0.7,0.2,1.3,0.5,1.9,0.9L95,6.6
		c-0.6-0.4-1.4-0.8-2.2-1c-0.8-0.2-1.7-0.4-2.5-0.4c-1.4,0-2.6,0.3-3.5,1s-1.4,1.7-1.4,2.9c0,0.8,0.2,1.5,0.6,2s0.9,0.9,1.4,1.1
		c0.5,0.2,1.3,0.5,2.1,0.8c0.9,0.3,1.6,0.5,2,0.8s0.6,0.6,0.6,1c0,0.4-0.2,0.7-0.5,0.9c-0.4,0.2-0.8,0.3-1.4,0.3
		c-0.7,0-1.5-0.1-2.3-0.4c-0.8-0.3-1.5-0.7-2.1-1.2l-1.1,2.2c0.7,0.6,1.5,1,2.4,1.4c0.9,0.3,1.9,0.5,2.9,0.5c1.5,0,2.7-0.3,3.7-1
		c1-0.7,1.5-1.7,1.5-2.9c0-0.9-0.2-1.5-0.6-2.1c-0.4-0.5-0.9-0.9-1.5-1.2c-0.6-0.3-1.3-0.5-2.2-0.8c-0.9-0.2-1.5-0.5-1.9-0.7
		c-0.4-0.2-0.6-0.5-0.6-0.9c0-0.4,0.2-0.7,0.5-0.9c0.3-0.2,0.7-0.3,1.3-0.3C90.6,7.7,91.3,7.8,91.9,8 M97.9,18.4h3.2v-13h-3.2V18.4z
		 M83.2,16.9c0-0.9-0.7-1.7-1.7-1.7s-1.7,0.7-1.7,1.7c0,0.9,0.7,1.7,1.7,1.7S83.2,17.8,83.2,16.9 M101.1,1.7c0-0.9-0.7-1.6-1.6-1.6
		c-0.9,0-1.7,0.7-1.7,1.6s0.7,1.6,1.7,1.6C100.4,3.4,101.1,2.7,101.1,1.7 M62.7,1.7c0-0.9-0.7-1.6-1.6-1.6c-0.9,0-1.7,0.7-1.7,1.6
		s0.7,1.6,1.7,1.6C61.9,3.4,62.7,2.7,62.7,1.7"/>
	<g>
		
			<linearGradient id="SVGID_1_" gradientUnits="userSpaceOnUse" x1="137.1236" y1="-78.3402" x2="110.6073" y2="-78.3402" gradientTransform="matrix(1 0 0 -1 0 -57.02)">
			<stop  offset="0" style="stop-color:#F9AA19"/>
			<stop  offset="9.090910e-03" style="stop-color:#F9AA19"/>
			<stop  offset="1" style="stop-color:#FFCA05"/>
		</linearGradient>
		<polygon class="st1" points="110.4,18.7 115.5,23.9 137.4,23.9 137.4,18.7 		"/>
		
			<linearGradient id="SVGID_2_" gradientUnits="userSpaceOnUse" x1="115.4977" y1="-59.7018" x2="142.454" y2="-59.7018" gradientTransform="matrix(1 0 0 -1 0 -57.02)">
			<stop  offset="0" style="stop-color:#F9AA19"/>
			<stop  offset="9.090910e-03" style="stop-color:#F9AA19"/>
			<stop  offset="1" style="stop-color:#FFCA05"/>
		</linearGradient>
		<polygon class="st2" points="142.5,5.3 137.4,0.1 115.5,0.1 115.5,5.3 		"/>
		
			<linearGradient id="SVGID_3_" gradientUnits="userSpaceOnUse" x1="112.9652" y1="-75.528" x2="112.9652" y2="-57.2246" gradientTransform="matrix(1 0 0 -1 0 -57.02)">
			<stop  offset="0" style="stop-color:#F9AA19"/>
			<stop  offset="9.090910e-03" style="stop-color:#F9AA19"/>
			<stop  offset="1" style="stop-color:#FFCA05"/>
		</linearGradient>
		<polygon class="st3" points="115.5,0.1 110.4,5.3 110.4,18.7 115.5,18.7 		"/>
		
			<linearGradient id="SVGID_4_" gradientUnits="userSpaceOnUse" x1="139.9527" y1="-62.3787" x2="139.9527" y2="-80.8165" gradientTransform="matrix(1 0 0 -1 0 -57.02)">
			<stop  offset="0" style="stop-color:#F9AA19"/>
			<stop  offset="9.090910e-03" style="stop-color:#F9AA19"/>
			<stop  offset="1" style="stop-color:#FFCA05"/>
		</linearGradient>
		<polygon class="st4" points="137.4,23.9 142.5,18.7 142.5,5.3 137.4,5.3 		"/>
		<path class="st5" d="M111.3,25.2c0,0.7-0.3,1.4-0.8,1.8c-0.5,0.5-1.1,0.8-1.8,0.8c-0.7,0-1.4-0.3-1.8-0.8
			c-0.5-0.5-0.8-1.1-0.8-1.8s0.3-1.4,0.8-1.8c0.5-0.5,1.1-0.8,1.8-0.8c0.7,0,1.4,0.3,1.8,0.8C111,23.8,111.3,24.5,111.3,25.2"/>
		<path class="st5" d="M104.3,29.6c0,0.4-0.2,0.8-0.5,1.1c-0.3,0.3-0.7,0.5-1.1,0.5c-0.4,0-0.8-0.2-1.1-0.5
			c-0.3-0.3-0.5-0.7-0.5-1.1c0-0.4,0.2-0.8,0.5-1.1c0.3-0.3,0.7-0.5,1.1-0.5c0.4,0,0.8,0.2,1.1,0.5
			C104.1,28.7,104.3,29.1,104.3,29.6"/>
	</g>
</g>
</svg>
