<?xml version="1.0" encoding="utf-8"?>
<!-- Generator: Adobe Illustrator 22.1.0, SVG Export Plug-In . SVG Version: 6.00 Build 0)  -->
<svg version="1.1" id="Layer_1" xmlns="http://www.w3.org/2000/svg" xmlns:xlink="http://www.w3.org/1999/xlink" x="0px" y="0px"
	 viewBox="0 0 164 31.3" style="enable-background:new 0 0 164 31.3;" xml:space="preserve">
<style type="text/css">
	.st0{fill:#FFFFFF;}
	.st1{fill:url(#SVGID_1_);}
	.st2{fill:url(#SVGID_2_);}
	.st3{fill:url(#SVGID_3_);}
	.st4{fill:url(#SVGID_4_);}
	.st5{fill:#F9AA19;}
	.st6{fill:#323232;}
	.st7{fill:url(#SVGID_5_);}
	.st8{fill:url(#SVGID_6_);}
	.st9{fill:url(#SVGID_7_);}
	.st10{fill:url(#SVGID_8_);}
</style>
<g>
	<g>
		<g>
			<rect x="0.3" y="5.4" class="st0" width="3.1" height="12.9"/>
			<path class="st0" d="M19.7,0.4v17.9h-3.1v-2.1c-0.5,0.7-1.1,1.3-1.8,1.7c-0.7,0.4-1.6,0.6-2.5,0.6c-1.2,0-2.3-0.3-3.2-0.8
				s-1.6-1.3-2.2-2.3c-0.5-1-0.8-2.2-0.8-3.5c0-1.3,0.3-2.4,0.8-3.4s1.2-1.7,2.1-2.3c0.9-0.5,2-0.8,3.2-0.8c1,0,1.8,0.2,2.6,0.6
				c0.7,0.4,1.4,0.9,1.8,1.7V0.4L19.7,0.4L19.7,0.4z M15.6,14.7c0.7-0.7,1-1.7,1-2.8s-0.3-2.1-1-2.8S14,7.9,13,7.9
				c-1.1,0-2,0.4-2.6,1.1s-1,1.7-1,2.8c0,1.2,0.4,2.1,1,2.8c0.7,0.7,1.5,1.1,2.6,1.1S14.9,15.4,15.6,14.7z"/>
			<path class="st0" d="M33.8,7c1,1.2,1.6,2.8,1.6,4.9c0,0.4,0,0.7,0,0.9h-9.5c0.2,0.9,0.6,1.6,1.3,2.2c0.7,0.5,1.4,0.8,2.4,0.8
				c0.7,0,1.3-0.1,1.9-0.4c0.6-0.2,1.1-0.6,1.6-1.1l1.7,1.8c-0.7,0.7-1.4,1.2-2.3,1.6c-0.9,0.4-2,0.6-3.1,0.6
				c-1.3,0-2.5-0.3-3.5-0.8c-1-0.5-1.8-1.3-2.3-2.3c-0.5-1-0.8-2.1-0.8-3.4c0-1.3,0.3-2.4,0.8-3.4c0.6-1,1.3-1.8,2.3-2.3
				s2.1-0.8,3.4-0.8C31.2,5.3,32.7,5.9,33.8,7z M32.5,10.8c0-0.9-0.4-1.7-0.9-2.3c-0.6-0.6-1.4-0.8-2.4-0.8c-0.9,0-1.7,0.3-2.3,0.8
				c-0.6,0.6-1,1.3-1.2,2.3H32.5z"/>
			<path class="st0" d="M45.6,18.3v-1.6c-0.4,0.6-1,1-1.7,1.3c-0.7,0.3-1.5,0.4-2.4,0.4c-0.9,0-1.7-0.2-2.4-0.5s-1.2-0.8-1.6-1.4
				c-0.4-0.6-0.6-1.3-0.6-2c0-1.2,0.4-2.1,1.3-2.8c0.9-0.7,2.1-1,3.6-1h3.8v-0.3c0-0.8-0.2-1.3-0.7-1.8c-0.5-0.4-1.2-0.6-2.2-0.6
				c-1.2,0-2.5,0.4-3.8,1.2l-1.1-2.2c1-0.6,1.9-1,2.8-1.2c0.8-0.2,1.8-0.4,2.9-0.4c1.7,0,3,0.4,3.9,1.2c0.9,0.8,1.4,1.9,1.4,3.4
				l0,8.4H45.6z M44.5,15.4c0.7-0.4,1-0.9,1.1-1.6v-1.2h-3.3c-0.8,0-1.4,0.1-1.8,0.4s-0.6,0.7-0.6,1.2c0,0.5,0.2,1,0.6,1.3
				c0.4,0.3,1,0.5,1.7,0.5C43.1,16,43.9,15.8,44.5,15.4z"/>
			<path class="st0" d="M52.3,0.4h3.3v17.9h-3.3V0.4z"/>
			<path class="st0" d="M70.3,6.6c0.9,0.9,1.3,2.1,1.3,3.6v8h-3.2v-7.1c0-0.9-0.3-1.6-0.8-2.1c-0.5-0.5-1.2-0.8-2.1-0.8
				c-1,0-1.9,0.4-2.5,1.1c-0.6,0.7-0.9,1.6-0.9,2.6v6.3H59V5.4h3.1v2.4c0.9-1.7,2.4-2.5,4.6-2.5C68.3,5.2,69.4,5.7,70.3,6.6z"/>
			<path class="st0" d="M84.2,6.1c1,0.5,1.8,1.3,2.4,2.3c0.6,1,0.9,2.1,0.9,3.4c0,1.3-0.3,2.5-0.9,3.4c-0.6,1-1.4,1.8-2.4,2.3
				c-1,0.5-2.2,0.8-3.5,0.8c-1.4,0-2.5-0.3-3.6-0.8c-1-0.5-1.8-1.3-2.4-2.3c-0.6-1-0.9-2.1-0.9-3.4c0-1.3,0.3-2.4,0.9-3.4
				s1.4-1.7,2.4-2.3c1-0.5,2.2-0.8,3.6-0.8C82,5.3,83.2,5.5,84.2,6.1z M78.1,9c-0.7,0.7-1,1.7-1,2.8c0,1.2,0.3,2.1,1,2.8
				c0.7,0.7,1.6,1.1,2.6,1.1c1.1,0,1.9-0.4,2.6-1.1c0.7-0.7,1-1.7,1-2.8c0-1.2-0.3-2.1-1-2.8C82.6,8.3,81.8,8,80.7,8
				C79.6,7.9,78.8,8.3,78.1,9z"/>
			<path class="st0" d="M92.6,16.8c0,0.9-0.7,1.6-1.6,1.6c-0.9,0-1.6-0.7-1.6-1.6c0-0.9,0.7-1.6,1.6-1.6
				C91.9,15.1,92.6,15.8,92.6,16.8"/>
		</g>
		<path class="st0" d="M3.5,1.7c0,0.9-0.7,1.6-1.6,1.6S0.2,2.6,0.2,1.7S1,0.1,1.9,0.1S3.5,0.8,3.5,1.7"/>
		<path class="st0" d="M106.2,6.2c0.9,0.6,1.6,1.3,2.1,2.3s0.8,2.1,0.8,3.4c0,1.3-0.2,2.4-0.7,3.4s-1.2,1.7-2.1,2.3
			c-0.9,0.5-2,0.8-3.2,0.8c-1,0-1.8-0.2-2.5-0.6c-0.7-0.4-1.4-0.9-1.8-1.7v2.1h-3.1V0.5h3.1v7.1c0.5-0.7,1.1-1.3,1.8-1.7
			c0.7-0.4,1.6-0.6,2.5-0.6C104.2,5.4,105.3,5.6,106.2,6.2z M104.9,14.7c0.7-0.7,1-1.7,1-2.8s-0.3-2.1-1-2.8
			c-0.7-0.7-1.5-1.1-2.6-1.1c-1.1,0-2,0.4-2.6,1.1c-0.7,0.7-1,1.7-1,2.8c0,1.2,0.3,2.1,1,2.8c0.7,0.7,1.5,1.1,2.6,1.1
			C103.4,15.8,104.3,15.4,104.9,14.7z"/>
		<path class="st0" d="M119.4,18.3v-1.6c-0.4,0.6-1,1-1.7,1.3c-0.7,0.3-1.5,0.4-2.4,0.4c-0.9,0-1.7-0.2-2.4-0.5
			c-0.7-0.4-1.2-0.8-1.6-1.4c-0.4-0.6-0.6-1.3-0.6-2c0-1.2,0.4-2.1,1.3-2.8c0.9-0.7,2.1-1,3.6-1h3.8v-0.3c0-0.8-0.2-1.3-0.7-1.8
			c-0.5-0.4-1.2-0.6-2.2-0.6c-1.2,0-2.5,0.4-3.8,1.2l-1.1-2.2c1-0.6,1.9-1,2.8-1.2c0.8-0.2,1.8-0.4,2.9-0.4c1.7,0,3,0.4,3.9,1.2
			s1.4,1.9,1.4,3.4l0,8.4H119.4z M118.3,15.4c0.7-0.4,1-0.9,1.1-1.6v-1.2h-3.3c-0.8,0-1.4,0.1-1.8,0.4c-0.4,0.2-0.6,0.7-0.6,1.2
			c0,0.5,0.2,1,0.6,1.3c0.4,0.3,1,0.5,1.7,0.5C116.9,16.1,117.7,15.9,118.3,15.4z"/>
	</g>
	<g>
		
			<linearGradient id="SVGID_1_" gradientUnits="userSpaceOnUse" x1="158.6758" y1="12.6617" x2="131.7622" y2="12.6617" gradientTransform="matrix(1 0 0 -1 0 34)">
			<stop  offset="0" style="stop-color:#F9AA19"/>
			<stop  offset="9.090910e-03" style="stop-color:#F9AA19"/>
			<stop  offset="1" style="stop-color:#FFCA05"/>
		</linearGradient>
		<polygon class="st1" points="131.8,18.8 136.9,23.9 158.8,23.9 158.8,18.8 		"/>
		
			<linearGradient id="SVGID_2_" gradientUnits="userSpaceOnUse" x1="137.0907" y1="31.3161" x2="163.9062" y2="31.3161" gradientTransform="matrix(1 0 0 -1 0 34)">
			<stop  offset="0" style="stop-color:#F9AA19"/>
			<stop  offset="9.090910e-03" style="stop-color:#F9AA19"/>
			<stop  offset="1" style="stop-color:#FFCA05"/>
		</linearGradient>
		<polygon class="st2" points="163.9,5.3 158.8,0.1 136.9,0.1 136.9,5.3 		"/>
		
			<linearGradient id="SVGID_3_" gradientUnits="userSpaceOnUse" x1="134.3433" y1="15.3654" x2="134.3433" y2="33.9595" gradientTransform="matrix(1 0 0 -1 0 34)">
			<stop  offset="0" style="stop-color:#F9AA19"/>
			<stop  offset="9.090910e-03" style="stop-color:#F9AA19"/>
			<stop  offset="1" style="stop-color:#FFCA05"/>
		</linearGradient>
		<polygon class="st3" points="136.9,0.1 131.8,5.3 131.8,18.8 136.9,18.8 		"/>
		
			<linearGradient id="SVGID_4_" gradientUnits="userSpaceOnUse" x1="161.3444" y1="28.8492" x2="161.3444" y2="10.0194" gradientTransform="matrix(1 0 0 -1 0 34)">
			<stop  offset="0" style="stop-color:#F9AA19"/>
			<stop  offset="9.090910e-03" style="stop-color:#F9AA19"/>
			<stop  offset="1" style="stop-color:#FFCA05"/>
		</linearGradient>
		<polygon class="st4" points="158.8,23.9 163.9,18.8 163.9,5.3 158.8,5.3 		"/>
		<path class="st5" d="M132.7,25.2c0,0.7-0.3,1.4-0.8,1.8c-0.5,0.5-1.1,0.8-1.8,0.8s-1.4-0.3-1.8-0.8c-0.5-0.5-0.8-1.1-0.8-1.8
			s0.3-1.4,0.8-1.8c0.5-0.5,1.1-0.8,1.8-0.8s1.4,0.3,1.8,0.8C132.4,23.9,132.7,24.5,132.7,25.2"/>
		<path class="st5" d="M125.7,29.6c0,0.4-0.2,0.8-0.5,1.1c-0.3,0.3-0.7,0.5-1.1,0.5s-0.8-0.2-1.1-0.5c-0.3-0.3-0.5-0.7-0.5-1.1
			c0-0.4,0.2-0.8,0.5-1.1c0.3-0.3,0.7-0.5,1.1-0.5c0.4,0,0.8,0.2,1.1,0.5C125.5,28.8,125.7,29.2,125.7,29.6"/>
	</g>
</g>
</svg>
