<?xml version="1.0" encoding="utf-8"?>
<!-- Generator: Adobe Illustrator 22.1.0, SVG Export Plug-In . SVG Version: 6.00 Build 0)  -->
<svg version="1.1" id="Layer_1" xmlns="http://www.w3.org/2000/svg" xmlns:xlink="http://www.w3.org/1999/xlink" x="0px" y="0px"
	 viewBox="0 0 162.3 31.3" style="enable-background:new 0 0 162.3 31.3;" xml:space="preserve">
<style type="text/css">
	.st0{fill:#323232;}
	.st1{fill:url(#SVGID_1_);}
	.st2{fill:url(#SVGID_2_);}
	.st3{fill:url(#SVGID_3_);}
	.st4{fill:url(#SVGID_4_);}
	.st5{fill:#F9AA19;}
	.st6{fill:#FFFFFF;}
	.st7{fill:url(#SVGID_5_);}
	.st8{fill:url(#SVGID_6_);}
	.st9{fill:url(#SVGID_7_);}
	.st10{fill:url(#SVGID_8_);}
</style>
<g>
	<g>
		<path class="st6" d="M15.6,5.4c-1.3,0-2.4,0.3-3.4,0.8s-1.8,1.3-2.3,2.3C9.3,9.6,9,10.7,9,12s0.3,2.4,0.8,3.4s1.3,1.8,2.3,2.3
			c1,0.6,2.2,0.8,3.5,0.8c1.1,0,2.2-0.2,3.1-0.6c0.9-0.4,1.7-0.9,2.4-1.6l-1.7-1.8c-0.4,0.5-1,0.8-1.6,1.1c-0.6,0.3-1.2,0.4-1.9,0.4
			c-1,0-1.8-0.3-2.4-0.8c-0.6-0.5-1.1-1.3-1.3-2.2h9.6c0-0.2,0-0.5,0-0.9c0-2.1-0.5-3.8-1.6-5C19.2,6,17.7,5.4,15.6,5.4z M12.1,11
			c0.1-1,0.5-1.7,1.1-2.3c0.6-0.6,1.4-0.8,2.3-0.8c1,0,1.8,0.3,2.4,0.9c0.6,0.6,0.9,1.3,0.9,2.3L12.1,11L12.1,11z"/>
		<path class="st6" d="M27.3,0.9c-0.7,0.3-1.3,0.9-1.7,1.5C25.2,3,25,3.9,25,4.8v1.2h-1.7v2.3H25v10.1h3.2V8.4h3.3V6.1h-3.3V4.7
			c0-0.6,0.2-1,0.5-1.2c0.3-0.3,0.7-0.4,1.2-0.4c0.4,0,1,0.1,1.6,0.4L32,0.9c-0.8-0.4-1.6-0.6-2.4-0.6C28.8,0.4,28,0.5,27.3,0.9z"/>
		<path class="st6" d="M38.9,15.8c-0.5,0-0.8-0.1-1-0.4c-0.2-0.3-0.3-0.7-0.3-1.3V8.4h3.7V6.1h-3.7V2.5h-3.1v3.6h-1.8l0,2.3h1.8v6.4
			c0,1.3,0.4,2.2,1.1,2.9c0.7,0.6,1.6,1,2.7,1c1.1,0,2.2-0.3,3.3-0.9l-0.7-2.4C40,15.7,39.4,15.8,38.9,15.8z"/>
		<rect x="43.5" y="5.5" class="st6" width="3.1" height="13"/>
		<path class="st6" d="M45.1,0.1c-1.3,0-2.2,1.5-1.2,2.8c1.3,1,2.8,0.1,2.8-1.2C46.7,0.8,46,0.1,45.1,0.1z"/>
		<rect x="66.7" y="5.5" class="st6" width="3.1" height="13"/>
		<path class="st6" d="M68.3,0.1c-1.3,0-2.2,1.5-1.2,2.8c1.3,1,2.8,0.1,2.8-1.2C69.9,0.8,69.2,0.1,68.3,0.1z"/>
		<path class="st6" d="M63.2,18.5v-8.1c0-1.5-0.4-2.8-1.3-3.6c-0.9-0.9-2-1.3-3.5-1.3c-2.2,0-3.8,0.9-4.7,2.6V5.5h-3.2v13h3.2v-6.4
			c0-1.1,0.3-2,0.9-2.7c0.6-0.7,1.4-1.1,2.5-1.1c0.9,0,1.6,0.3,2.1,0.8c0.5,0.5,0.8,1.2,0.8,2.1v7.2L63.2,18.5L63.2,18.5z"/>
		<path class="st6" d="M86.1,5.4c-1.3,0-2.4,0.3-3.4,0.8s-1.8,1.3-2.3,2.3c-0.6,1-0.8,2.1-0.8,3.4s0.3,2.4,0.8,3.4s1.3,1.8,2.3,2.3
			c1,0.6,2.2,0.8,3.5,0.8c1.1,0,2.2-0.2,3.1-0.6s1.7-0.9,2.4-1.6l-1.7-1.8c-0.4,0.5-1,0.8-1.6,1.1c-0.6,0.3-1.2,0.4-1.9,0.4
			c-1,0-1.8-0.3-2.4-0.8c-0.6-0.5-1.1-1.3-1.3-2.2h9.6c0-0.2,0-0.5,0-0.9c0-2.1-0.5-3.8-1.6-5C89.7,6,88.2,5.4,86.1,5.4z M82.6,11
			c0.1-1,0.5-1.7,1.1-2.3c0.6-0.6,1.4-0.8,2.3-0.8c1,0,1.8,0.3,2.4,0.9c0.6,0.6,0.9,1.3,0.9,2.3L82.6,11L82.6,11z"/>
		<path class="st6" d="M107.8,5.4c-2.2,0-3.8,0.9-4.7,2.6V0.5H100v18h3.2v-6.4c0-1.1,0.3-2,0.9-2.7c0.6-0.7,1.4-1.1,2.5-1.1
			c0.9,0,1.6,0.3,2.1,0.8c0.5,0.5,0.8,1.2,0.8,2.1v7.2h3.2v-8.1c0-1.5-0.4-2.8-1.3-3.6C110.5,5.8,109.3,5.4,107.8,5.4z"/>
		<path class="st6" d="M121.3,6.1c-0.8,0.4-1.3,1.1-1.8,1.9V5.5h-3.2v13h3.2v-6.2c0-1.2,0.4-2.1,1.2-2.8c0.8-0.7,1.9-1,3.2-0.9v-3
			C122.9,5.4,122,5.6,121.3,6.1z"/>
		<path class="st6" d="M75.3,0.1c-1.3,0-2.2,1.5-1.2,2.8C75.5,4,77,3,77,1.7C77,0.8,76.2,0.1,75.3,0.1z"/>
		<path class="st6" d="M73.7,19.2c0,0.7-0.1,1.2-0.4,1.6c-0.3,0.4-0.7,0.5-1.2,0.5c-0.4,0-0.7-0.1-1.1-0.2l-0.7,2.3
			c0.8,0.3,1.6,0.5,2.5,0.5c1.3,0,2.3-0.4,3-1.1c0.7-0.7,1.1-1.8,1.1-3.1V5.6h-3.1V19.2z"/>
		<path class="st6" d="M5.1,0.1c-1.3,0-2.2,1.5-1.2,2.8C5.2,4,6.7,3,6.7,1.7C6.7,0.8,6,0.1,5.1,0.1z"/>
		<path class="st6" d="M3.5,19.2c0,0.7-0.1,1.2-0.4,1.6c-0.3,0.4-0.7,0.5-1.2,0.5c-0.4,0-0.7-0.1-1.1-0.2l-0.7,2.3
			c0.8,0.3,1.6,0.5,2.5,0.5c1.3,0,2.3-0.4,3-1.1c0.7-0.7,1.1-1.8,1.1-3.1V5.6H3.5L3.5,19.2L3.5,19.2z"/>
		<path class="st6" d="M95.8,15.3c-0.9,0-1.6,0.7-1.6,1.6c0,0.9,0.7,1.6,1.6,1.6c0.9,0,1.6-0.7,1.6-1.6
			C97.4,16.1,96.7,15.3,95.8,15.3z"/>
	</g>
	<g>
		
			<linearGradient id="SVGID_1_" gradientUnits="userSpaceOnUse" x1="156.9009" y1="-71.7915" x2="130.0281" y2="-71.7915" gradientTransform="matrix(1 0 0 -1 0 -50.45)">
			<stop  offset="0" style="stop-color:#F9AA19"/>
			<stop  offset="9.090910e-03" style="stop-color:#F9AA19"/>
			<stop  offset="1" style="stop-color:#FFCA05"/>
		</linearGradient>
		<polygon class="st1" points="130,18.8 135.2,23.9 157,23.9 157,18.8 		"/>
		
			<linearGradient id="SVGID_2_" gradientUnits="userSpaceOnUse" x1="135.2134" y1="-53.137" x2="162.248" y2="-53.137" gradientTransform="matrix(1 0 0 -1 0 -50.45)">
			<stop  offset="0" style="stop-color:#F9AA19"/>
			<stop  offset="9.090910e-03" style="stop-color:#F9AA19"/>
			<stop  offset="1" style="stop-color:#FFCA05"/>
		</linearGradient>
		<polygon class="st2" points="162.2,5.3 157,0.1 135.2,0.1 135.2,5.3 		"/>
		
			<linearGradient id="SVGID_3_" gradientUnits="userSpaceOnUse" x1="132.6014" y1="-69.0933" x2="132.6014" y2="-50.6128" gradientTransform="matrix(1 0 0 -1 0 -50.45)">
			<stop  offset="0" style="stop-color:#F9AA19"/>
			<stop  offset="9.090910e-03" style="stop-color:#F9AA19"/>
			<stop  offset="1" style="stop-color:#FFCA05"/>
		</linearGradient>
		<polygon class="st3" points="135.2,0.1 130,5.3 130,18.8 135.2,18.8 		"/>
		
			<linearGradient id="SVGID_4_" gradientUnits="userSpaceOnUse" x1="159.6268" y1="-55.7472" x2="159.6268" y2="-74.3119" gradientTransform="matrix(1 0 0 -1 0 -50.45)">
			<stop  offset="0" style="stop-color:#F9AA19"/>
			<stop  offset="9.090910e-03" style="stop-color:#F9AA19"/>
			<stop  offset="1" style="stop-color:#FFCA05"/>
		</linearGradient>
		<polygon class="st4" points="157,23.9 162.2,18.8 162.2,5.3 157,5.3 		"/>
		<path class="st5" d="M131,25.2c0,0.7-0.3,1.3-0.8,1.8c-0.5,0.5-1.1,0.8-1.8,0.8c-0.7,0-1.3-0.3-1.8-0.8c-0.5-0.5-0.8-1.1-0.8-1.8
			s0.3-1.3,0.8-1.8c0.5-0.5,1.1-0.8,1.8-0.8c0.7,0,1.3,0.3,1.8,0.8C130.7,23.9,131,24.5,131,25.2"/>
		<path class="st5" d="M123.9,29.6c0,0.4-0.2,0.8-0.5,1.1c-0.3,0.3-0.7,0.5-1.1,0.5c-0.4,0-0.8-0.2-1.1-0.5
			c-0.3-0.3-0.5-0.7-0.5-1.1s0.2-0.8,0.5-1.1c0.3-0.3,0.7-0.5,1.1-0.5c0.4,0,0.8,0.2,1.1,0.5C123.8,28.8,123.9,29.2,123.9,29.6"/>
	</g>
</g>
</svg>
